<!-- Generated by IcoMoon.io --><svg version="1.1" xmlns="http://www.w3.org/2000/svg" width="32" height="32" viewBox="0 0 32 32"><path fill="#f4f4fd" d="M31.97 9.408c-.076-1.7-.35-2.87-.745-3.882a7.803 7.803 0 0 0-1.85-2.838A7.867 7.867 0 0 0 26.543.844C25.523.45 24.36.174 22.66.1c-1.712-.08-2.256-.1-6.6-.1s-4.888.02-6.595.094c-1.7.075-2.87.35-3.882.744a7.803 7.803 0 0 0-2.838 1.85A7.867 7.867 0 0 0 .9 5.52C.508 6.54.233 7.702.158 9.402c-.08 1.713-.1 2.257-.1 6.6s.02 4.89.094 6.596c.076 1.7.35 2.87.745 3.882a7.895 7.895 0 0 0 1.85 2.838c.8.813 1.77 1.444 2.832 1.844 1.02.394 2.182.67 3.882.744 1.705.075 2.25.094 6.594.094s4.888-.018 6.595-.094c1.7-.075 2.868-.35 3.88-.744a8.18 8.18 0 0 0 4.683-4.682c.394-1.02.67-2.182.744-3.882.075-1.707.094-2.25.094-6.595s-.005-4.888-.08-6.595zm-2.883 13.065c-.07 1.563-.33 2.407-.55 2.97A5.307 5.307 0 0 1 25.5 28.48c-.564.22-1.414.48-2.97.55-1.688.075-2.194.094-6.464.094s-4.782-.018-6.464-.094c-1.563-.07-2.407-.33-2.97-.55a4.926 4.926 0 0 1-1.837-1.194A4.974 4.974 0 0 1 3.6 25.448c-.218-.563-.48-1.413-.55-2.97-.074-1.687-.093-2.193-.093-6.463s.02-4.782.094-6.464c.07-1.562.332-2.406.55-2.968a4.868 4.868 0 0 1 1.2-1.838A4.974 4.974 0 0 1 6.64 3.55C7.2 3.33 8.05 3.07 9.607 3c1.688-.075 2.194-.094 6.464-.094 4.276 0 4.782.02 6.464.094 1.563.07 2.407.33 2.97.55a4.914 4.914 0 0 1 1.837 1.194c.53.52.938 1.144 1.194 1.838.22.563.48 1.413.55 2.97.075 1.687.094 2.193.094 6.463s-.018 4.77-.093 6.457z"/><path fill="#f4f4fd" d="M16.06 7.782c-4.54 0-8.22 3.682-8.22 8.22s3.68 8.22 8.22 8.22c4.537 0 8.22-3.682 8.22-8.22s-3.683-8.22-8.22-8.22zm0 13.553a5.333 5.333 0 0 1 0-10.664 5.333 5.333 0 0 1 0 10.665z"/><path fill="#f4f4fd" d="M26.524 7.457a1.92 1.92 0 1 1-3.838 0 1.92 1.92 0 0 1 3.838 0z"/></svg>