<!-- Generated by IcoMoon.io --><svg version="1.1" xmlns="http://www.w3.org/2000/svg" width="32" height="32" viewBox="0 0 32 32"><path fill="#f4f4fd" d="M31.992 32H32V20.262c0-5.74-1.236-10.164-7.948-10.164-3.227 0-5.392 1.77-6.276 3.448h-.093v-2.913H11.32V32h6.626V21.42c0-2.785.528-5.48 3.977-5.48 3.4 0 3.45 3.18 3.45 5.658v10.4h6.62z"/><path fill="#f4f4fd" d="M.528 10.636h6.635V32H.528V10.636z"/><path fill="#f4f4fd" d="M3.843 0C1.723 0 0 1.72 0 3.843s1.72 3.88 3.843 3.88c2.12 0 3.843-1.758 3.843-3.88A3.846 3.846 0 0 0 3.843 0z"/></svg>